<svg width="75" height="75" viewBox="0 0 75 75" fill="none" xmlns="http://www.w3.org/2000/svg">
<circle cx="37.5" cy="37.5" r="37.5" fill="#FF6262"/>
<path d="M36.0003 14.0625C36.0003 12.7198 36.5271 11.4322 37.4648 10.4828C38.4024 9.53337 39.6742 9 41.0003 9C42.3264 9 43.5981 9.53337 44.5358 10.4828C45.4735 11.4322 46.0003 12.7198 46.0003 14.0625C46.0003 15.4052 45.4735 16.6928 44.5358 17.6422C43.5981 18.5916 42.3264 19.125 41.0003 19.125C39.6742 19.125 38.4024 18.5916 37.4648 17.6422C36.5271 16.6928 36.0003 15.4052 36.0003 14.0625ZM41.344 33.3316L39.3545 41.3789L44.5315 46.6207C45.469 47.5699 46.0003 48.8566 46.0003 50.1961V59.625C46.0003 61.4918 44.5107 63 42.667 63C40.8232 63 39.3336 61.4918 39.3336 59.625V50.9027L31.6357 43.1086C29.9899 41.4422 29.3232 39.0375 29.8753 36.7488L32.0003 27.8895C32.8649 24.293 36.4482 22.0992 39.9899 22.9957C41.969 23.502 43.6982 24.7254 44.8232 26.4445L47.7815 30.9375H51.0003V28.4062C51.0003 27.0035 52.1149 25.875 53.5003 25.875C54.8857 25.875 56.0003 27.0035 56.0003 28.4062V34.2914C56.0003 34.302 56.0003 34.3125 56.0003 34.3125V34.3336V60.4688C56.0003 61.8715 54.8857 63 53.5003 63C52.1149 63 51.0003 61.8715 51.0003 60.4688V37.6875H46.8961C45.2295 37.6875 43.667 36.8438 42.7399 35.4305L41.3545 33.3211L41.344 33.3316ZM24.4482 58.7707L28.219 44.2266C28.5315 44.6695 28.8857 45.0914 29.2711 45.4816L33.6357 49.9008L30.8857 60.4793C30.417 62.2828 28.594 63.3586 26.8128 62.884C25.0315 62.4094 23.969 60.5637 24.4378 58.7602L24.4482 58.7707ZM30.2295 22.2785L26.5628 37.1074C26.2503 38.3836 25.0107 39.2062 23.7295 38.9953L18.7399 38.1516C17.2815 37.909 16.3545 36.4324 16.7399 34.9875L19.3232 25.3477C20.3128 21.6773 23.6045 19.125 27.3649 19.125H27.8024C29.4274 19.125 30.6253 20.6754 30.2295 22.268V22.2785Z" fill="white"/>
</svg>
