<svg width="1281" height="19" viewBox="0 0 1281 19" fill="none" xmlns="http://www.w3.org/2000/svg">
<path d="M0 0H13.9223C13.9223 0 27.9062 9.31332 27.9062 9.5C27.9062 9.68668 13.9223 19 13.9223 19H0L0 9.5L0 0Z" fill="#FF6262"/>
<path d="M27.9062 0H54.7369C54.7369 0 68.875 9.31332 68.875 9.5C68.875 9.68668 54.7369 19 54.7369 19H27.9062L41.982 9.5L27.9062 0Z" fill="#FF6262"/>
<path d="M654.945 0H681.776C681.776 0 695.914 9.31332 695.914 9.5C695.914 9.68668 681.776 19 681.776 19H654.945L669.021 9.5L654.945 0Z" fill="#FF6262"/>
<path d="M1199 0H1225.83C1225.83 0 1239.97 9.31332 1239.97 9.5C1239.97 9.68668 1225.83 19 1225.83 19H1199L1213.08 9.5L1199 0Z" fill="#FF6262"/>
<path d="M1239.38 0H1280.02C1280.02 0 1280.02 9.5 1280.02 9.68668C1280.02 9.87336 1280.02 19 1280.02 19H1239.38L1253.45 9.5L1239.38 0Z" fill="#FF6262"/>
<path d="M697.572 0H1184C1184 0 1198.14 9.31332 1198.14 9.5C1198.14 9.68668 1184 19 1184 19H697.572L711.648 9.5L697.572 0Z" fill="#FF6262"/>
</svg>
