<svg width="51" height="51" viewBox="0 0 51 51" fill="none" xmlns="http://www.w3.org/2000/svg">
<circle cx="25.5" cy="25.5" r="25.5" fill="#FF6262"/>
<g clip-path="url(#clip0_61_595)">
<path d="M35.2133 11.3172C35.7854 11.7136 36.0855 12.399 35.9779 13.0843L32.3529 36.6468C32.268 37.1963 31.9338 37.6777 31.4467 37.9496C30.9596 38.2215 30.3762 38.2554 29.8607 38.0402L23.0865 35.2252L19.2066 39.4222C18.7025 39.9717 17.9096 40.1529 17.2129 39.881C16.5162 39.6092 16.0631 38.9351 16.0631 38.1875V33.4523C16.0631 33.2258 16.1481 33.0105 16.301 32.8463L25.7939 22.4867C26.1225 22.1299 26.1111 21.5804 25.7713 21.2406C25.4314 20.9008 24.882 20.8781 24.5252 21.2009L13.0045 31.4359L8.00313 28.9324C7.40274 28.6322 7.01758 28.0318 7.00059 27.3634C6.9836 26.6951 7.33477 26.072 7.9125 25.7379L33.2875 11.2379C33.8936 10.8924 34.6412 10.9263 35.2133 11.3172Z" fill="white"/>
</g>
<defs>
<clipPath id="clip0_61_595">
<rect width="29" height="29" fill="white" transform="translate(7 11)"/>
</clipPath>
</defs>
</svg>
