<svg width="75" height="75" viewBox="0 0 75 75" fill="none" xmlns="http://www.w3.org/2000/svg">
<circle cx="37.5" cy="37.5" r="37.5" fill="#FF6262"/>
<g clip-path="url(#clip0_53_382)">
<path d="M28.6665 13.125C28.6665 11.3965 30.0568 10 31.7776 10H44.2221C45.9429 10 47.3332 11.3965 47.3332 13.125V16.25H51.9999C54.5762 16.25 56.6665 18.3496 56.6665 20.9375V33.4375L60.9832 34.8828C63.229 35.6348 63.8512 38.5449 62.1012 40.1465L52.2818 49.1895C50.7068 50.1074 48.9082 50.6641 47.3332 50.6641C45.4276 50.6641 43.3665 49.9121 41.5776 48.6816C39.429 47.168 36.561 47.168 34.4124 48.6816C32.7499 49.834 30.7179 50.6641 28.6568 50.6641C27.0818 50.6641 25.2832 50.1074 23.7082 49.1895L13.8887 40.1465C12.1387 38.5352 12.761 35.6348 15.0068 34.8828L19.3332 33.4375V20.9375C19.3332 18.3496 21.4235 16.25 23.9999 16.25H28.6665V13.125ZM25.5554 31.3574L36.036 27.8516C37.3096 27.4219 38.6901 27.4219 39.9735 27.8516L50.4443 31.3574V22.5H25.5554V31.3574ZM39.7985 51.2012C41.986 52.7148 44.6596 53.75 47.3332 53.75C49.9485 53.75 52.7193 52.6953 54.8582 51.2012C56.0151 50.3711 57.5901 50.4395 58.6693 51.3672C60.0693 52.5293 61.829 53.418 63.5887 53.8281C65.261 54.2188 66.3012 55.8984 65.9124 57.5781C65.5235 59.2578 63.8512 60.3027 62.179 59.9121C59.7971 59.3555 57.8137 58.3008 56.5207 57.4707C53.7012 58.9941 50.5415 60 47.3332 60C44.2318 60 41.4415 59.0332 39.5165 58.1543C38.9526 57.8906 38.4374 57.6367 37.9999 57.4023C37.5624 57.6367 37.0568 57.9004 36.4832 58.1543C34.5582 59.0332 31.7679 60 28.6665 60C25.4582 60 22.2985 58.9941 19.479 57.4805C18.1762 58.3008 16.2026 59.3652 13.8207 59.9219C12.1485 60.3125 10.4762 59.2676 10.0874 57.5879C9.69847 55.9082 10.7387 54.2285 12.411 53.8379C14.1707 53.4277 15.9304 52.5391 17.3304 51.377C18.4096 50.459 19.9846 50.3906 21.1415 51.2109C23.2901 52.6953 26.0512 53.75 28.6665 53.75C31.3401 53.75 34.0137 52.7148 36.2012 51.2012C37.2804 50.4297 38.7193 50.4297 39.7985 51.2012Z" fill="white"/>
</g>
<defs>
<clipPath id="clip0_53_382">
<rect width="56" height="50" fill="white" transform="translate(10 10)"/>
</clipPath>
</defs>
</svg>
