<svg width="51" height="51" viewBox="0 0 51 51" fill="none" xmlns="http://www.w3.org/2000/svg">
<circle cx="25.5" cy="25.5" r="25.5" fill="#FF6262"/>
<path d="M20.3396 12.3946C19.9035 11.3411 18.7538 10.7804 17.655 11.0806L12.6708 12.4399C11.6853 12.7117 11 13.6066 11 14.6261C11 28.6384 22.3616 40 36.3739 40C37.3934 40 38.2882 39.3147 38.5601 38.3292L39.9194 33.345C40.2196 32.2462 39.6589 31.0965 38.6054 30.6604L33.1682 28.3948C32.245 28.0097 31.1745 28.2759 30.5458 29.0519L28.2576 31.8441C24.2703 29.9581 21.0419 26.7297 19.1559 22.7424L21.9481 20.4598C22.7241 19.8255 22.9903 18.7607 22.6052 17.8375L20.3396 12.4002V12.3946Z" fill="white"/>
</svg>
