<svg width="75" height="75" viewBox="0 0 75 75" fill="none" xmlns="http://www.w3.org/2000/svg">
<circle cx="37.5" cy="37.5" r="37.5" fill="#FF6262"/>
<path d="M38.7875 18C37.603 18 36.65 18.9554 36.65 20.1429C36.65 21.3304 37.603 22.2857 38.7875 22.2857H41.0764L44.158 28H30.852L28.4117 24.6071C28.0109 24.0446 27.3608 23.7143 26.675 23.7143H21.6875C20.503 23.7143 19.55 24.6696 19.55 25.8571C19.55 27.0446 20.503 28 21.6875 28H25.5795L27.5478 30.7411L25.1787 35.4821C24.2881 35.2589 23.353 35.1429 22.4 35.1429C16.1033 35.1429 11 40.2589 11 46.5714C11 52.8839 16.1033 58 22.4 58C28.2158 58 33.0073 53.6339 33.7109 48H38.075C38.832 48 39.5267 47.5982 39.9186 46.9464L47.4711 34.1339L49.4037 37.7143C46.8387 39.8125 45.2 43 45.2 46.5714C45.2 52.8839 50.3033 58 56.6 58C62.8967 58 68 52.8839 68 46.5714C68 40.2589 62.8967 35.1429 56.6 35.1429C55.3977 35.1429 54.2398 35.3304 53.1533 35.6786L44.4341 19.5C43.9353 18.5714 42.9734 18 41.9225 18H38.7875ZM51.8441 42.2589L54.7208 47.5893C55.2819 48.6339 56.5822 49.0179 57.6153 48.4554C58.6484 47.8929 59.0403 46.5893 58.4792 45.5536L55.6025 40.2232C55.9231 40.1696 56.2616 40.1429 56.6 40.1429C60.1447 40.1429 63.0125 43.0179 63.0125 46.5714C63.0125 50.125 60.1447 53 56.6 53C53.0553 53 50.1875 50.125 50.1875 46.5714C50.1875 44.9107 50.8109 43.4018 51.8441 42.2589ZM22.8631 48H28.6522C28.002 50.8661 25.4459 53 22.4 53C18.8553 53 15.9875 50.125 15.9875 46.5714C15.9875 43.0179 18.8553 40.1429 22.4 40.1429C22.5514 40.1429 22.7028 40.1518 22.8542 40.1607L20.6989 44.4911C19.8973 46.1071 21.0641 48.0089 22.8631 48.0089V48ZM25.8645 43.7143L30.38 34.6696L36.8727 43.7054L36.8637 43.7143H25.8556H25.8645ZM33.9336 32.2857H43.588L39.2328 39.6786L33.9247 32.2857H33.9336Z" fill="white"/>
</svg>
