<svg width="76" height="84" viewBox="0 0 76 84" fill="none" xmlns="http://www.w3.org/2000/svg">
<g clip-path="url(#clip0_53_527)">
<path d="M29.619 0C26.6403 0 24.2338 2.34397 24.2338 5.24525C24.2338 8.14653 26.6403 10.4905 29.619 10.4905H32.3115V16.1291C15.5335 18.6534 2.69336 32.7828 2.69336 49.8299C2.69336 68.6636 18.3607 83.924 37.6966 83.924C57.0326 83.924 72.6999 68.6636 72.6999 49.8299C72.6999 42.9782 70.63 36.602 67.0624 31.2748L71.118 27.3245C73.2216 25.2755 73.2216 21.9481 71.118 19.8992C69.0145 17.8502 65.5983 17.8502 63.4947 19.8992L59.8598 23.4397C55.131 19.6697 49.3924 17.0798 43.0818 16.1291V10.4905H45.7743C48.753 10.4905 51.1594 8.14653 51.1594 5.24525C51.1594 2.34397 48.753 0 45.7743 0H37.6966H29.619Z" fill="#FF6262"/>
</g>
<path d="M17.024 62C16.2347 62 15.6267 61.7973 15.2 61.392C14.7947 60.9653 14.592 60.368 14.592 59.6C14.592 58.832 14.7947 58.2453 15.2 57.84C15.6267 57.4347 16.2347 57.232 17.024 57.232H19.904V44.144H22.592L17.952 46.992C17.3973 47.3333 16.8747 47.472 16.384 47.408C15.8933 47.3227 15.4773 47.1093 15.136 46.768C14.7947 46.4267 14.5707 46.0107 14.464 45.52C14.3573 45.0293 14.4 44.5387 14.592 44.048C14.784 43.5573 15.168 43.1413 15.744 42.8L20.16 40.048C20.6293 39.7493 21.1093 39.5253 21.6 39.376C22.112 39.2267 22.6453 39.152 23.2 39.152C24.0107 39.152 24.64 39.3653 25.088 39.792C25.536 40.1973 25.76 40.7947 25.76 41.584V57.232H28.32C29.1093 57.232 29.7067 57.4347 30.112 57.84C30.5387 58.2453 30.752 58.832 30.752 59.6C30.752 60.368 30.5387 60.9653 30.112 61.392C29.7067 61.7973 29.1093 62 28.32 62H17.024ZM39.1875 62.352C36.4142 62.352 34.2808 61.3387 32.7875 59.312C31.3155 57.264 30.5795 54.3733 30.5795 50.64C30.5795 48.1227 30.9102 46.0107 31.5715 44.304C32.2328 42.576 33.2035 41.2747 34.4835 40.4C35.7635 39.5253 37.3315 39.088 39.1875 39.088C41.9822 39.088 44.1155 40.0693 45.5875 42.032C47.0595 43.9947 47.7955 46.8533 47.7955 50.608C47.7955 53.104 47.4648 55.2267 46.8035 56.976C46.1422 58.7253 45.1715 60.0587 43.8915 60.976C42.6115 61.8933 41.0435 62.352 39.1875 62.352ZM39.1875 57.68C40.2115 57.68 40.9688 57.1253 41.4595 56.016C41.9715 54.8853 42.2275 53.0827 42.2275 50.608C42.2275 48.1547 41.9715 46.4053 41.4595 45.36C40.9688 44.2933 40.2115 43.76 39.1875 43.76C38.1635 43.76 37.3955 44.2933 36.8835 45.36C36.3928 46.4053 36.1475 48.1547 36.1475 50.608C36.1475 53.0827 36.3928 54.8853 36.8835 56.016C37.3955 57.1253 38.1635 57.68 39.1875 57.68ZM51.655 62.288C50.759 62.288 50.0657 62.0427 49.575 61.552C49.0843 61.0613 48.839 60.3467 48.839 59.408V42.032C48.839 41.0933 49.0843 40.3787 49.575 39.888C50.0657 39.3973 50.759 39.152 51.655 39.152C52.5723 39.152 53.2763 39.3973 53.767 39.888C54.279 40.3787 54.535 41.0933 54.535 42.032V49.008H54.023C54.535 48.0053 55.2603 47.2373 56.199 46.704C57.159 46.1707 58.247 45.904 59.463 45.904C60.7217 45.904 61.7563 46.1493 62.567 46.64C63.3777 47.1093 63.9857 47.856 64.391 48.88C64.7963 49.8827 64.999 51.152 64.999 52.688V59.408C64.999 60.3467 64.7537 61.0613 64.263 61.552C63.7723 62.0427 63.0683 62.288 62.151 62.288C61.2337 62.288 60.5297 62.0427 60.039 61.552C59.5483 61.0613 59.303 60.3467 59.303 59.408V52.912C59.303 51.952 59.1323 51.2693 58.791 50.864C58.471 50.4587 57.991 50.256 57.351 50.256C56.4977 50.256 55.815 50.5333 55.303 51.088C54.791 51.6213 54.535 52.3467 54.535 53.264V59.408C54.535 61.328 53.575 62.288 51.655 62.288Z" fill="white"/>
<defs>
<clipPath id="clip0_53_527">
<rect width="75.3917" height="83.924" fill="white"/>
</clipPath>
</defs>
</svg>
