<svg width="75" height="75" viewBox="0 0 75 75" fill="none" xmlns="http://www.w3.org/2000/svg">
<circle cx="37.5" cy="37.5" r="37.5" fill="#FF6262"/>
<g clip-path="url(#clip0_53_537)">
<path d="M19.15 15C16.7484 15 14.8 16.9316 14.8 19.3125V23.625H10.45C9.6525 23.625 9 24.2719 9 25.0625C9 25.8531 9.6525 26.5 10.45 26.5H14.8H33.65C34.4475 26.5 35.1 27.1469 35.1 27.9375C35.1 28.7281 34.4475 29.375 33.65 29.375H14.8H13.35C12.5525 29.375 11.9 30.0219 11.9 30.8125C11.9 31.6031 12.5525 32.25 13.35 32.25H14.8H30.75C31.5475 32.25 32.2 32.8969 32.2 33.6875C32.2 34.4781 31.5475 35.125 30.75 35.125H14.8H10.45C9.6525 35.125 9 35.7719 9 36.5625C9 37.3531 9.6525 38 10.45 38H14.8H27.85C28.6475 38 29.3 38.6469 29.3 39.4375C29.3 40.2281 28.6475 40.875 27.85 40.875H14.8V52.375C14.8 57.1367 18.6969 61 23.5 61C28.3031 61 32.2 57.1367 32.2 52.375H43.8C43.8 57.1367 47.6969 61 52.5 61C57.3031 61 61.2 57.1367 61.2 52.375H64.1C65.7041 52.375 67 51.0902 67 49.5C67 47.9098 65.7041 46.625 64.1 46.625V40.875V38V36.3199C64.1 34.7926 63.4928 33.3281 62.4053 32.25L55.4 25.3051C54.3125 24.227 52.8353 23.625 51.2947 23.625H46.7V19.3125C46.7 16.9316 44.7516 15 42.35 15H19.15ZM58.3 36.3199V38H46.7V29.375H51.2947L58.3 36.3199ZM23.5 48.0625C24.6537 48.0625 25.7601 48.5168 26.5759 49.3256C27.3917 50.1344 27.85 51.2313 27.85 52.375C27.85 53.5187 27.3917 54.6156 26.5759 55.4244C25.7601 56.2332 24.6537 56.6875 23.5 56.6875C22.3463 56.6875 21.2399 56.2332 20.4241 55.4244C19.6083 54.6156 19.15 53.5187 19.15 52.375C19.15 51.2313 19.6083 50.1344 20.4241 49.3256C21.2399 48.5168 22.3463 48.0625 23.5 48.0625ZM48.15 52.375C48.15 51.2313 48.6083 50.1344 49.4241 49.3256C50.2399 48.5168 51.3463 48.0625 52.5 48.0625C53.6537 48.0625 54.7601 48.5168 55.5759 49.3256C56.3917 50.1344 56.85 51.2313 56.85 52.375C56.85 53.5187 56.3917 54.6156 55.5759 55.4244C54.7601 56.2332 53.6537 56.6875 52.5 56.6875C51.3463 56.6875 50.2399 56.2332 49.4241 55.4244C48.6083 54.6156 48.15 53.5187 48.15 52.375Z" fill="white"/>
</g>
<defs>
<clipPath id="clip0_53_537">
<rect width="58" height="46" fill="white" transform="translate(9 15)"/>
</clipPath>
</defs>
</svg>
