<svg width="76" height="84" viewBox="0 0 76 84" fill="none" xmlns="http://www.w3.org/2000/svg">
<g clip-path="url(#clip0_53_521)">
<path d="M29.619 0C26.6403 0 24.2338 2.34397 24.2338 5.24525C24.2338 8.14653 26.6403 10.4905 29.619 10.4905H32.3115V16.1291C15.5335 18.6534 2.69336 32.7828 2.69336 49.8299C2.69336 68.6636 18.3607 83.924 37.6966 83.924C57.0326 83.924 72.6999 68.6636 72.6999 49.8299C72.6999 42.9782 70.63 36.602 67.0624 31.2748L71.118 27.3245C73.2216 25.2755 73.2216 21.9481 71.118 19.8992C69.0145 17.8502 65.5983 17.8502 63.4947 19.8992L59.8598 23.4397C55.131 19.6697 49.3924 17.0798 43.0818 16.1291V10.4905H45.7743C48.753 10.4905 51.1594 8.14653 51.1594 5.24525C51.1594 2.34397 48.753 0 45.7743 0H37.6966H29.619Z" fill="#FF6262"/>
</g>
<path d="M17.024 61C16.2347 61 15.6267 60.7973 15.2 60.392C14.7947 59.9653 14.592 59.368 14.592 58.6C14.592 57.832 14.7947 57.2453 15.2 56.84C15.6267 56.4347 16.2347 56.232 17.024 56.232H19.904V43.144H22.592L17.952 45.992C17.3973 46.3333 16.8747 46.472 16.384 46.408C15.8933 46.3227 15.4773 46.1093 15.136 45.768C14.7947 45.4267 14.5707 45.0107 14.464 44.52C14.3573 44.0293 14.4 43.5387 14.592 43.048C14.784 42.5573 15.168 42.1413 15.744 41.8L20.16 39.048C20.6293 38.7493 21.1093 38.5253 21.6 38.376C22.112 38.2267 22.6453 38.152 23.2 38.152C24.0107 38.152 24.64 38.3653 25.088 38.792C25.536 39.1973 25.76 39.7947 25.76 40.584V56.232H28.32C29.1093 56.232 29.7067 56.4347 30.112 56.84C30.5387 57.2453 30.752 57.832 30.752 58.6C30.752 59.368 30.5387 59.9653 30.112 60.392C29.7067 60.7973 29.1093 61 28.32 61H17.024ZM42.5795 61.288C41.6835 61.288 40.9795 61.0427 40.4675 60.552C39.9768 60.0613 39.7315 59.336 39.7315 58.376V57.224H33.2995C32.3608 57.224 31.6248 57.0107 31.0915 56.584C30.5795 56.1573 30.3235 55.5067 30.3235 54.632C30.3235 54.12 30.4195 53.6293 30.6115 53.16C30.8035 52.6693 31.1448 52.0827 31.6355 51.4L39.4435 40.008C39.8702 39.368 40.3502 38.8987 40.8835 38.6C41.4168 38.3013 42.0462 38.152 42.7715 38.152C43.5822 38.152 44.2222 38.3973 44.6915 38.888C45.1608 39.3573 45.3955 40.0827 45.3955 41.064V52.776H46.1635C46.9742 52.776 47.5822 52.968 47.9875 53.352C48.4142 53.736 48.6275 54.28 48.6275 54.984C48.6275 55.7093 48.4142 56.264 47.9875 56.648C47.5822 57.032 46.9742 57.224 46.1635 57.224H45.3955V58.376C45.3955 59.3147 45.1502 60.04 44.6595 60.552C44.1902 61.0427 43.4968 61.288 42.5795 61.288ZM39.7315 52.776V45.224H40.6275L34.6115 54.152V52.776H39.7315ZM51.655 61.288C50.759 61.288 50.0657 61.0427 49.575 60.552C49.0843 60.0613 48.839 59.3467 48.839 58.408V41.032C48.839 40.0933 49.0843 39.3787 49.575 38.888C50.0657 38.3973 50.759 38.152 51.655 38.152C52.5723 38.152 53.2763 38.3973 53.767 38.888C54.279 39.3787 54.535 40.0933 54.535 41.032V48.008H54.023C54.535 47.0053 55.2603 46.2373 56.199 45.704C57.159 45.1707 58.247 44.904 59.463 44.904C60.7217 44.904 61.7563 45.1493 62.567 45.64C63.3777 46.1093 63.9857 46.856 64.391 47.88C64.7963 48.8827 64.999 50.152 64.999 51.688V58.408C64.999 59.3467 64.7537 60.0613 64.263 60.552C63.7723 61.0427 63.0683 61.288 62.151 61.288C61.2337 61.288 60.5297 61.0427 60.039 60.552C59.5483 60.0613 59.303 59.3467 59.303 58.408V51.912C59.303 50.952 59.1323 50.2693 58.791 49.864C58.471 49.4587 57.991 49.256 57.351 49.256C56.4977 49.256 55.815 49.5333 55.303 50.088C54.791 50.6213 54.535 51.3467 54.535 52.264V58.408C54.535 60.328 53.575 61.288 51.655 61.288Z" fill="white"/>
<defs>
<clipPath id="clip0_53_521">
<rect width="75.3917" height="83.924" fill="white"/>
</clipPath>
</defs>
</svg>
