<svg width="459" height="317" viewBox="0 0 459 317" fill="none" xmlns="http://www.w3.org/2000/svg">
<path d="M38.1966 6.14297L31.3147 12.3295L15.9827 15.2921C7.53271 16.9041 0.432965 18.2982 0.128068 18.3854C-0.220386 18.5161 0.128068 20.0409 1.34766 23.4827C4.52729 32.2833 9.57987 46.9219 9.57987 47.1833C9.57987 47.3576 8.01183 50.0152 6.05178 53.0649L2.52369 58.6851L2.82858 63.4775C3.00281 66.1351 3.30771 68.2699 3.43838 68.2699C3.6126 68.2699 4.30951 67.4857 5.04998 66.5272C5.74688 65.5687 6.61802 64.6974 6.96647 64.6102C9.31853 63.9131 24.5198 60.3842 24.6505 60.5149C24.7376 60.6021 25.0861 62.0398 25.4345 63.6517L26.0443 66.6143L24.3892 69.0541L22.734 71.5374L26.3492 73.2801C29.4853 74.805 31.0098 75.2406 37.3255 76.2863L44.643 77.4626L51.0459 76.1991L57.4922 74.8921L61.7172 76.5041C64.0693 77.419 67.5103 78.6824 69.3397 79.336L72.6935 80.5558L73.3469 83.5184C73.7389 85.174 74.0438 86.8295 74.0438 87.1781C74.0438 87.8751 74.4358 88.2672 78.5301 92.1012L80.9693 94.4102L80.1417 99.7254C79.6626 102.644 79.0964 105.171 78.7915 105.302C78.5301 105.476 73.3469 108.221 67.2489 111.445C58.6683 115.932 56.2291 117.414 56.4469 117.937C57.2745 119.984 56.9696 124.254 55.4451 132.967L53.7899 142.073L49.6085 143.772L45.3835 145.471L47.5613 149.871C49.0422 152.921 49.6085 154.446 49.3471 154.969C47.3435 159.02 41.5069 169.041 41.1149 169.215C40.81 169.302 38.066 168.605 35.017 167.647C31.968 166.645 29.3982 165.948 29.2675 166.078C29.1368 166.209 29.7902 171.219 30.7049 177.232L32.4036 188.167L34.3201 189.823L36.193 191.522L34.5814 194.049C33.6667 195.443 31.7067 198.449 30.1822 200.758C27.6995 204.505 24.8247 211.214 24.8247 213.262C24.8247 213.61 26.5234 217.052 28.6142 220.93C30.7484 224.763 32.4907 228.075 32.5778 228.205C32.6649 228.38 31.7502 229.382 30.6178 230.427C25.9572 234.74 9.7541 249.64 9.18786 250.163C8.57807 250.773 8.57807 250.73 10.9301 258.746L11.8013 261.708H19.1188H26.4799L34.4072 272.252L42.3781 282.795L42.0296 289.809L41.7247 296.867L43.2492 298.131C47.692 301.921 52.8317 305.929 53.2237 305.799C53.4415 305.755 53.5286 305.842 53.3979 306.06C53.2672 306.278 54.3997 307.454 55.8806 308.63C57.3616 309.85 60.2799 312.203 62.327 313.858L66.0294 316.908L69.2961 314.076C71.0819 312.551 73.434 310.46 74.5229 309.458C75.6118 308.5 77.659 306.67 79.0964 305.406L81.7533 303.185L86.501 302.88C93.6008 302.444 93.3394 302.531 100.657 298.61L107.452 294.907L124.395 297.695C133.716 299.22 145.912 301.268 151.531 302.182L161.723 303.838L167.299 301.529L172.917 299.22L176.184 301.79C177.97 303.228 179.625 304.404 179.799 304.404C180.017 304.404 186.028 298.305 193.171 290.899C200.315 283.449 206.543 277.306 207.066 277.218C207.589 277.088 213.73 276.826 220.786 276.565C227.843 276.304 233.679 276.042 233.766 275.955C233.81 275.868 234.986 270.03 236.336 262.972C237.643 255.914 238.862 250.032 239.037 249.902C239.211 249.771 244.655 246.939 251.102 243.628C263.733 237.18 267.436 235.22 268.002 234.697C268.35 234.392 264.909 227.377 255.414 209.21L252.234 203.111L258.332 194.92C261.643 190.432 264.387 186.642 264.387 186.511C264.387 186.381 264.822 185.858 265.301 185.335C265.824 184.812 266.564 183.897 266.956 183.287C267.348 182.677 270.223 178.756 273.359 174.574C276.495 170.392 281.94 163.029 285.468 158.236L291.914 149.523L305.722 144.643C313.301 141.942 321.359 139.067 323.624 138.239C325.889 137.411 330.331 135.843 333.424 134.71C336.56 133.621 340.741 131.791 342.789 130.702C344.836 129.613 348.059 127.87 349.975 126.824C351.892 125.779 357.075 123.034 361.474 120.638L369.489 116.325L373.191 106.435L376.937 96.545L373.845 93.4518L370.752 90.402L365.09 93.321L359.471 96.1965L353.765 93.5825L348.015 90.9249L343.66 92.319L339.348 93.6696L337.039 91.9705C331.159 87.5702 330.811 87.4395 325.497 87.4395H320.705L320.444 83.6491C320.313 81.5579 320.052 79.7716 319.834 79.6845C319.66 79.6409 315.653 77.724 310.992 75.502L302.499 71.4067L300.756 73.0187L298.971 74.6307L291.043 75.1971L283.072 75.7199L268.612 69.7512C260.641 66.44 249.969 62.0398 244.83 59.9485C239.69 57.8138 235.334 55.9403 235.16 55.7661C234.942 55.5482 235.204 53.8055 235.726 51.8015C236.205 49.8409 236.51 48.0982 236.38 47.9675C236.249 47.8368 233.853 46.7912 230.979 45.6149C226.405 43.7415 225.098 43.4366 218.652 42.5652C212.162 41.6938 210.725 41.3453 203.843 38.862L196.22 36.1172L193.041 36.64L189.818 37.2064L180.235 33.1547L170.696 29.0594L154.057 28.1444C139.205 27.3602 137.201 27.1859 135.372 26.3582C133.063 25.3126 132.453 25.4433 133.586 26.7067C134.065 27.2295 134.762 27.4909 135.459 27.4038C136.373 27.2731 136.417 27.3167 135.938 27.883C135.285 28.7108 134.326 28.4059 132.889 27.0553C132.366 26.4889 131.495 25.9225 131.06 25.7918C130.624 25.6175 130.232 25.2254 130.232 24.9205C130.232 24.2669 129.535 23.9184 118.602 19.2567L111.111 16.0327L86.6752 12.5038L62.2399 8.97485L55.75 5.53302C52.1348 3.61606 48.3018 1.61197 47.1693 1.04559L45.0786 0L38.1966 6.14297Z" fill="#FF6262"/>
<path d="M435.868 144.818C435.346 145.297 433.386 149.654 433.386 150.263C433.386 150.612 433.168 151.091 432.906 151.353C432.645 151.614 432.514 152.05 432.689 152.268C432.994 152.747 436.26 154.533 436.87 154.533C437.088 154.533 438.264 155.099 439.484 155.84C440.703 156.537 441.923 157.147 442.228 157.147C442.533 157.147 443.839 158.236 445.146 159.543C446.453 160.85 447.759 161.939 448.064 161.939C448.413 161.939 448.761 162.244 448.892 162.593C449.197 163.29 451.462 163.508 451.854 162.854C451.984 162.637 452.855 162.332 453.727 162.157C454.641 161.983 455.6 161.722 455.817 161.504C456.079 161.33 456.819 161.068 457.472 160.894C458.474 160.632 458.649 160.458 458.387 159.63C458.256 159.108 457.864 158.367 457.56 158.018C457.211 157.67 456.776 156.886 456.514 156.276C456.035 155.187 455.12 153.618 454.728 153.226C454.511 153.008 453.465 151.091 451.984 148.216C450.068 144.469 450.155 144.513 442.75 144.513C439.135 144.513 435.999 144.643 435.868 144.818Z" fill="#FF6262"/>
<path d="M395.231 149.958C393.794 150.699 392.052 151.701 391.311 152.18C390.614 152.703 389.177 153.531 388.088 154.054C385.736 155.187 384.473 155.971 384.168 156.363C384.037 156.494 383.384 156.799 382.731 156.929C382.077 157.104 381.555 157.408 381.555 157.626C381.555 157.801 380.117 158.716 378.419 159.543C374.847 161.33 372.713 162.462 372.408 162.811C372.277 162.942 371.711 163.29 371.101 163.595C370.491 163.856 368.444 164.989 366.528 166.035C364.611 167.124 362.259 168.431 361.301 168.954C360.343 169.477 359.471 169.956 359.384 170.087C359.079 170.304 366.397 177.624 366.92 177.624C367.137 177.624 367.747 178.016 368.27 178.495C369.054 179.236 369.402 179.279 370.883 178.887C371.841 178.626 373.235 178.146 374.019 177.798C375.674 177.057 377.025 177.014 377.504 177.754C377.939 178.451 380.335 180.02 380.945 180.02C381.729 180.02 385.954 184.159 385.693 184.638C385.518 184.856 385.649 185.03 385.867 185.03C386.128 185.03 387.522 186.076 388.959 187.296C390.353 188.559 392.487 190.345 393.62 191.304L395.667 193.003L396.887 191.522C397.54 190.737 398.106 189.91 398.106 189.692C398.106 189.474 398.542 188.69 399.108 187.949C400.197 186.424 400.85 185.335 401.678 183.723C401.983 183.157 403.072 181.37 404.117 179.846C405.119 178.277 405.946 176.839 405.946 176.622C405.946 176.447 406.382 175.62 406.948 174.879C408.255 173.006 408.908 171.96 409.518 170.653C409.823 170.043 410.476 168.954 410.999 168.257C411.522 167.516 412.349 166.166 412.872 165.251L413.743 163.551L412.698 162.985C412.131 162.724 410.825 162.332 409.779 162.157C408.734 161.983 407.732 161.678 407.471 161.504C407.253 161.33 405.99 161.025 404.77 160.85C402.113 160.502 400.981 159.369 400.502 156.494C400.328 155.535 400.023 154.533 399.848 154.315C399.674 154.054 399.413 153.139 399.239 152.268C399.064 151.396 398.716 150.22 398.411 149.654L397.888 148.651L395.231 149.958Z" fill="#FF6262"/>
<path d="M312.429 196.27C311.21 197.403 308.553 199.712 306.549 201.455C300.364 206.814 300.103 207.075 300.669 207.641C300.93 207.903 301.279 208.121 301.496 208.121C301.671 208.121 302.368 208.6 303.021 209.21C305.591 211.519 307.42 212.913 307.856 212.913C308.117 212.913 308.901 212.434 309.554 211.824C312.037 209.602 313.954 208.121 314.346 208.121C314.563 208.121 315.217 207.554 315.783 206.814C316.393 206.117 317.046 205.55 317.264 205.507C317.612 205.507 319.66 203.895 321.881 201.891C322.491 201.324 323.318 200.758 323.754 200.584C325.322 199.974 324.364 199.059 319.834 196.75C317.307 195.443 315.086 194.353 314.955 194.31C314.825 194.223 313.692 195.138 312.429 196.27Z" fill="#FF6262"/>
</svg>
