<svg width="459" height="317" viewBox="0 0 459 317" fill="none" xmlns="http://www.w3.org/2000/svg">
<path d="M59.1969 6.14297V6.14297C54.694 10.1908 49.1741 12.9364 43.2292 14.0851L36.983 15.2921C32.3136 16.1829 28.5349 16 25.7725 16.2293C22.2291 16.5234 21.1604 20.1312 22.348 23.4827V23.4827C25.5276 32.2833 30.5802 43.5 30.5802 47.1833C30.5802 49.5 29.0121 50.0152 27.0521 53.0649L26.5046 53.7317C24.2589 56.4668 23.1796 59.9757 23.5 63.5V63.5C23.6742 66.1576 23.4727 68.1275 24.4387 68.2699C26 68.5 26.3116 67.9585 27.0521 67C27.749 66.0415 30.8807 62.8317 32 62.5C34.3521 61.8029 44.8016 60.0298 45.6508 60.5149C46.5 61 46.0864 62.0398 46.4348 63.6517L46.4502 63.7266C46.8302 65.5728 46.4477 67.4942 45.3895 69.0541V69.0541V69.0541C44.5149 70.3662 45.0022 72.1486 46.4226 72.8333L47.3495 73.2801C50.4856 74.805 52.0101 75.2406 58.3258 76.2863L59.1996 76.4268C63.4615 77.1119 67.8112 77.0348 72.0462 76.1991V76.1991L74.0606 75.7907C76.9555 75.2037 79.9577 75.4511 82.7175 76.5041V76.5041C85.0696 77.419 88.5106 78.6824 90.34 79.336L90.8427 79.5188C92.6182 80.1646 93.9403 81.6734 94.3472 83.5184V83.5184C94.7392 85.174 95.0441 86.8295 95.0441 87.1781C95.0441 87.8751 95.4361 88.2672 99.5304 92.1012V92.1012C101.058 93.5469 101.776 95.6511 101.453 97.729L101.142 99.7254V99.7254C100.52 103.514 98.0994 106.228 94.7079 108.027C92.8498 109.012 90.6185 110.192 88.2492 111.445C79.6686 115.932 76.5 114 77.4472 117.937C78 123.5 77.9699 124.254 76.4454 132.967L75.5974 137.632C75.0947 140.398 73.2127 142.714 70.6088 143.772V143.772V143.772C68.3301 144.688 67.3143 147.351 68.4038 149.552L68.5616 149.871C70.0425 152.921 70.6088 154.446 70.3474 154.969C68.3438 159.02 63 168.963 62.1152 169.215C61.2304 169.467 59.549 168.458 56.5 167.5C53.451 166.498 51.8674 164.133 50 166C48.431 167.569 49.5853 171.987 50.5 178L52.7083 185.732C53.1621 187.321 54.07 188.743 55.3204 189.823V189.823V189.823C56.4022 190.804 56.6189 192.423 55.8336 193.654L55.5817 194.049C54.667 195.443 52.707 198.449 51.1825 200.758C48.6998 204.505 45.825 211.214 45.825 213.262C45.825 215.31 47.5237 217.052 49.6145 220.93C50.6671 222.82 51.6266 224.323 52.3381 225.504C53.3574 227.197 53.0703 229.087 51.6181 230.427V230.427C48.8121 233.024 41.7297 239.226 36.4694 244.005C32.1382 247.94 30.2829 253.131 31.9304 258.746V258.746V258.746C32.4469 260.502 34.0586 261.708 35.8891 261.708H40.1191V261.708C44.7537 261.708 49.1186 263.887 51.9037 267.592L55.4075 272.252L59.1432 277.193C61.8792 280.812 63.255 285.278 63.0299 289.809V289.809L62.8105 294.888C62.7566 296.135 63.2891 297.335 64.2495 298.131V298.131C68.3652 301.642 73.079 305.34 74.0624 305.762C74.1554 305.802 74.2629 305.857 74.3192 305.942V305.942C74.3674 306.014 74.3779 306.116 74.4114 306.197C74.5768 306.593 75.5982 307.611 76.8809 308.63C78.3619 309.85 81.2802 312.203 83.3273 313.858L83.6928 314.159C85.6194 315.746 88.4103 315.711 90.2964 314.076V314.076C92.0822 312.551 94.4343 310.46 95.5232 309.458C96.6121 308.5 98.6593 306.67 100.097 305.406V305.406C101.823 303.963 103.964 303.107 106.209 302.963L107.501 302.88C114.601 302.444 114.34 302.531 121.657 298.61V298.61C126.061 296.21 131.14 295.349 136.088 296.163L145.395 297.695C154.716 299.22 166.912 301.268 172.531 302.182L176.766 302.87C180.661 303.503 184.654 303.038 188.299 301.529V301.529L190.073 300.8C192.448 299.824 195.166 300.202 197.184 301.79V301.79V301.79C199.615 303.747 202.305 303.816 204.453 301.553C206.769 299.112 209.918 295.309 214.171 290.899C221.315 283.449 227.543 277.306 228.066 277.218C228.589 277.088 234.73 276.826 241.786 276.565V276.565C250.39 276.247 255.672 271.663 257.291 263.207C257.306 263.129 257.321 263.051 257.336 262.972C258.643 255.914 259.862 250.032 260.037 249.902C260.211 249.771 265.655 246.939 272.102 243.628C284.733 237.18 287 236 287.5 233.5C289.265 224.675 285.909 227.377 276.414 209.21V209.21C274.47 205.481 274.83 200.967 277.342 197.594L279.332 194.92C282.643 190.432 285.387 186.642 285.387 186.511C285.387 186.381 285.822 185.858 286.301 185.335C286.824 184.812 287.564 183.897 287.956 183.287C288.348 182.677 291.223 178.756 294.359 174.574C297.495 170.392 302.94 163.029 306.468 158.236V158.236C310.344 151.98 316.451 147.429 323.554 145.502L326.722 144.643C334.301 141.942 342.359 139.067 344.624 138.239C346.889 137.411 351.331 135.843 354.424 134.71C357.56 133.621 361.741 131.791 363.789 130.702C365.836 129.613 369.059 127.87 370.975 126.824C372.892 125.779 378.075 123.034 382.474 120.638V120.638C387.641 117.858 391.623 113.296 393.68 107.801L394.191 106.435L396.388 100.635C397.331 98.1456 396.727 95.3345 394.845 93.4518V93.4518V93.4518C393 91.6324 390.195 91.205 387.891 92.3924L386.09 93.321V93.321C382.562 95.1267 378.369 95.2333 374.765 93.5825V93.5825L373.166 92.8434C370.497 91.6095 367.461 91.4224 364.66 92.319V92.319L363.084 92.8127C361.364 93.3514 359.491 93.0386 358.039 91.9705V91.9705C352.159 87.5702 351.811 87.4395 346.497 87.4395H345.505C343.365 87.4395 341.591 85.7833 341.444 83.6491V83.6491C341.313 81.5579 341.052 79.7716 340.834 79.6845C340.66 79.6409 336.653 77.724 331.992 75.502L325.718 72.4763C324.425 71.8529 322.872 72.2204 321.996 73.3571V73.3571C321.671 73.7783 321.241 74.1068 320.75 74.3096L320.546 74.3934C320.165 74.5506 319.762 74.6457 319.351 74.675L312.043 75.1971V75.1971C306.799 75.541 301.546 74.6772 296.688 72.6721L289.612 69.7512C281.641 66.44 270.969 62.0398 265.83 59.9485C260.69 57.8138 256.334 55.9403 256.16 55.7661C255.942 55.5482 256.204 53.8055 256.726 51.8015V51.8015C257.353 49.2367 256.145 47.3513 253.71 46.3312C253.165 46.103 252.583 45.8618 251.979 45.6149C247.405 43.7415 246.098 43.4366 239.652 42.5652C233.162 41.6938 231.725 41.3453 224.843 38.862L220.252 37.2086C218.264 36.4929 216.126 36.2972 214.041 36.64V36.64V36.64C211.937 37.0097 209.772 36.7639 207.804 35.932L201.235 33.1547V33.1547C194.925 30.4456 188.188 28.8665 181.331 28.4894L175.057 28.1444C160.205 27.3602 158.201 27.1859 156.372 26.3582C154.063 25.3126 152.756 25.0948 153.889 26.3582C154.368 26.881 155.762 27.4909 156.459 27.4038C156 28.5 157.373 27.2731 156.459 27.4038C155.806 28.2316 157.809 27.7088 156.372 26.3582C155.5 26.5 154.935 25.7578 154.5 25.6271V25.6271C152.528 24.8388 150.44 24.002 148.51 23.1173C146.808 22.3376 144.054 21.1546 139.602 19.2567V19.2567C134.63 17.1167 129.397 15.6408 124.04 14.867L107.676 12.5038L90.5108 10.0249C85.6998 9.33007 81.0447 7.8105 76.7503 5.53302V5.53302C73.1351 3.61606 69.3021 1.61197 68.1696 1.04559V1.04559C66.9074 0.414344 65.3878 0.616856 64.335 1.55663L59.1969 6.14297Z" fill="#FF6262"/>
<path d="M430.561 147.13C429.684 147.186 428.982 147.653 428.58 148.435C427.933 149.692 427.046 151.676 426.592 152.874C426.362 153.481 425.674 154.249 426.08 154.755V154.755C426.385 155.234 429.651 157.02 430.261 157.02C430.479 157.02 431.655 157.586 432.875 158.327V158.327C434.623 159.326 436.575 160.085 438.006 161.501C438.172 161.666 438.349 161.842 438.537 162.03V162.03C440.306 163.8 442.676 166.213 445.066 165.468C445.147 165.442 445.209 165.401 445.245 165.341C445.375 165.124 446.246 164.819 447.118 164.644C447.26 164.617 447.403 164.588 447.545 164.557C448.694 164.307 449.726 163.684 450.863 163.381V163.381C451.865 163.119 452.04 162.945 451.778 162.117C451.647 161.595 451.255 160.854 450.951 160.505C450.602 160.157 450.167 159.373 449.905 158.763C449.426 157.674 448.511 156.105 448.119 155.713C447.902 155.495 446.856 153.578 445.375 150.703C443.459 146.956 443.546 147 436.141 147C433.894 147 431.831 147.05 430.561 147.13Z" fill="#FF6262"/>
<path d="M395.232 149.958C393.795 150.699 392.053 151.701 391.312 152.18C390.615 152.703 389.178 153.531 388.089 154.054C385.737 155.187 384.474 155.971 384.169 156.363V156.363C382.876 157.656 380.354 158.616 378.705 159.405C378.611 159.45 378.516 159.496 378.42 159.543C374.848 161.33 372.714 162.462 372.409 162.811C372.278 162.942 371.712 163.29 371.102 163.595C370.492 163.856 368.445 164.989 366.529 166.035C364.612 167.124 362.26 168.431 361.302 168.954V168.954C360.008 169.66 359.796 170.709 360.832 171.759C362.253 173.197 364.434 175.264 366.072 176.728C367.428 177.94 369.126 179.352 370.884 178.887V178.887C371.842 178.626 373.236 178.146 374.02 177.798C374.383 177.635 374.732 177.506 375.059 177.412C376.637 176.957 378.399 178.179 379.703 179.176C380.643 179.896 381.747 180.797 382.75 181.661C384.192 182.902 387.509 186.064 388.96 187.296V187.296C390.354 188.559 392.488 190.345 393.621 191.304L394.191 191.777C395.006 192.453 396.215 192.339 396.888 191.522V191.522C397.541 190.737 398.107 189.91 398.107 189.692C398.107 189.474 398.543 188.69 399.109 187.949C400.198 186.424 400.851 185.335 401.679 183.723C401.984 183.157 403.073 181.37 404.118 179.846C405.12 178.277 405.947 176.839 405.947 176.622C405.947 176.447 406.383 175.62 406.949 174.879C408.256 173.006 408.909 171.96 409.519 170.653C409.824 170.043 410.477 168.954 411 168.257C411.523 167.516 412.35 166.166 412.873 165.251L413.202 164.609C413.503 164.021 413.28 163.3 412.699 162.985V162.985C412.132 162.724 410.826 162.332 409.78 162.157C408.735 161.983 407.733 161.678 407.472 161.504C407.254 161.33 405.991 161.025 404.771 160.85C402.114 160.502 400.982 159.369 400.503 156.494C400.329 155.535 400.024 154.533 399.849 154.315C399.675 154.054 399.414 153.139 399.24 152.268C399.065 151.396 398.717 150.22 398.412 149.654V149.654C398.121 149.096 397.438 148.873 396.874 149.15L395.232 149.958Z" fill="#FF6262"/>
<path d="M334.96 188.966C333.741 190.099 331.084 192.408 329.08 194.151C322.895 199.51 322.634 199.771 323.2 200.337C323.461 200.599 323.81 200.817 324.027 200.817C324.202 200.817 324.899 201.296 325.552 201.906C328.122 204.215 329.951 205.609 330.387 205.609C330.648 205.609 331.432 205.13 332.085 204.52C334.568 202.298 336.485 200.817 336.877 200.817C337.094 200.817 337.748 200.25 338.314 199.51V199.51C339.185 198.514 340.405 197.93 341.445 197.112C342.271 196.461 343.321 195.571 344.412 194.587V194.587C345.426 193.644 346.366 192.238 345.327 191.323C344.742 190.808 343.817 190.186 342.365 189.446C341.665 189.084 340.988 188.738 340.373 188.427C338.467 187.463 336.55 187.54 334.96 188.966V188.966Z" fill="#FF6262"/>
</svg>
