<svg width="640" height="156" viewBox="0 0 640 156" fill="none" xmlns="http://www.w3.org/2000/svg">
<path d="M566.496 48.6239C570.848 44.2079 577.12 41.9999 585.312 41.9999L582.144 58.4159C580.544 58.2239 579.168 58.1279 578.016 58.1279C573.92 58.1279 570.624 59.1199 568.128 61.1039C565.696 63.0239 564.064 66.0959 563.232 70.3199L558.24 94.8959H540L550.368 42.8639H567.648L566.496 48.6239Z" fill="#FF6262"/>
<path d="M514.228 41C519.156 41 523.54 41.896 527.38 43.688C531.284 45.416 534.324 48.04 536.5 51.56C538.676 55.08 539.764 59.336 539.764 64.328C539.764 64.968 539.7 66.056 539.572 67.592L500.98 74.696C501.684 76.808 502.964 78.376 504.82 79.4C506.74 80.36 509.3 80.84 512.5 80.84C514.74 80.84 525.308 80.84 525.308 80.84H536.5L533.5 94.76C533.5 94.76 518.996 94.76 510.292 94.76C504.788 94.76 499.924 93.8 495.7 91.88C491.54 89.896 488.308 87.144 486.004 83.624C483.764 80.04 482.644 75.848 482.644 71.048C482.644 65.352 483.956 60.232 486.58 55.688C489.268 51.08 492.98 47.496 497.716 44.936C502.516 42.312 508.02 41 514.228 41ZM513.268 53.96C509.94 53.96 507.22 54.984 505.108 57.032C503.06 59.016 501.684 61.672 500.98 65L522.868 60.968C522.484 58.728 521.428 57 519.7 55.784C518.036 54.568 515.892 53.96 513.268 53.96Z" fill="#FF6262"/>
<path d="M470.727 75.32C470.599 76.216 470.535 76.856 470.535 77.24C470.535 80.248 472.135 81.752 475.335 81.752C476.871 81.752 478.215 81.496 479.367 80.984L477.447 94.52C474.567 95.416 471.623 95.864 468.615 95.864C464.583 95.864 461.287 95.096 458.727 93.56C456.167 92.024 454.407 89.784 453.447 86.84C451.271 89.72 448.679 91.96 445.671 93.56C442.663 95.096 439.303 95.864 435.591 95.864C431.751 95.864 428.135 94.936 424.743 93.08C421.415 91.16 418.727 88.408 416.679 84.824C414.631 81.24 413.607 77.016 413.607 72.152C413.607 66.52 414.855 61.432 417.351 56.888C419.911 52.28 423.367 48.664 427.719 46.04C432.071 43.416 436.807 42.104 441.927 42.104C449.607 42.104 454.983 44.568 458.055 49.496L466 14.5H482.5L470.727 75.32ZM441.927 81.176C445.575 81.176 448.551 79.832 450.855 77.144C453.159 74.456 454.311 70.968 454.311 66.68C454.311 63.608 453.447 61.176 451.719 59.384C449.991 57.592 447.591 56.696 444.519 56.696C440.871 56.696 437.895 58.04 435.591 60.728C433.287 63.416 432.135 66.936 432.135 71.288C432.135 74.36 432.999 76.792 434.727 78.584C436.455 80.312 438.855 81.176 441.927 81.176Z" fill="#FF6262"/>
<path d="M404.873 81.752C406.537 81.752 407.881 81.496 408.905 80.984L406.985 94.52C404.233 95.416 401.289 95.864 398.153 95.864C394.121 95.864 390.793 95.096 388.169 93.56C385.545 92.024 383.721 89.912 382.697 87.224C378.345 92.984 372.489 95.864 365.129 95.864C361.289 95.864 357.673 94.936 354.281 93.08C350.953 91.16 348.265 88.408 346.217 84.824C344.169 81.24 343.145 77.016 343.145 72.152C343.145 66.52 344.393 61.432 346.889 56.888C349.449 52.28 352.873 48.664 357.161 46.04C361.513 43.416 366.249 42.104 371.369 42.104C378.921 42.104 384.233 44.472 387.305 49.208L388.553 42.968H406.793L400.265 75.32C400.137 76.216 400.073 76.856 400.073 77.24C400.073 80.248 401.673 81.752 404.873 81.752ZM371.465 81.176C375.113 81.176 378.089 79.832 380.393 77.144C382.697 74.456 383.849 70.968 383.849 66.68C383.849 63.608 382.953 61.176 381.161 59.384C379.433 57.592 377.033 56.696 373.961 56.696C370.313 56.696 367.337 58.04 365.033 60.728C362.729 63.416 361.577 66.936 361.577 71.288C361.577 74.36 362.441 76.792 364.169 78.584C365.961 80.312 368.393 81.176 371.465 81.176Z" fill="#FF6262"/>
<path d="M315.238 95.864C309.734 95.864 304.902 94.904 300.742 92.984C296.646 91 293.446 88.216 291.142 84.632C288.902 81.048 287.782 76.888 287.782 72.152C287.782 66.456 289.158 61.336 291.91 56.792C294.662 52.248 298.502 48.664 303.43 46.04C308.358 43.416 313.894 42.104 320.038 42.104C325.926 42.104 331.014 43.352 335.302 45.848C339.59 48.28 342.726 51.736 344.71 56.216L329.158 63.608C327.238 59 323.878 56.696 319.078 56.696C315.366 56.696 312.294 58.04 309.862 60.728C307.494 63.416 306.31 66.872 306.31 71.096C306.31 74.168 307.174 76.632 308.902 78.488C310.694 80.28 313.222 81.176 316.486 81.176C318.918 81.176 321.062 80.632 322.918 79.544C324.774 78.456 326.374 76.728 327.718 74.36L341.062 82.424C338.566 86.648 335.046 89.944 330.502 92.312C326.022 94.68 320.934 95.864 315.238 95.864Z" fill="#FF6262"/>
<path d="M260.725 42.104C265.653 42.104 270.037 43 273.877 44.792C277.781 46.52 280.821 49.144 282.997 52.664C285.173 56.184 286.261 60.44 286.261 65.432C286.261 66.072 286.197 67.16 286.069 68.696L247.477 75.8C248.181 77.912 249.461 79.48 251.317 80.504C253.237 81.464 255.797 81.944 258.997 81.944C261.237 81.944 263.413 81.592 265.525 80.888C267.701 80.12 269.653 79.064 271.381 77.72L278.965 89.144C272.885 93.624 265.493 95.864 256.789 95.864C251.285 95.864 246.421 94.904 242.197 92.984C238.037 91 234.805 88.248 232.501 84.728C230.261 81.144 229.141 76.952 229.141 72.152C229.141 66.456 230.453 61.336 233.077 56.792C235.765 52.184 239.477 48.6 244.213 46.04C249.013 43.416 254.517 42.104 260.725 42.104ZM259.765 55.064C256.437 55.064 253.717 56.088 251.605 58.136C249.557 60.12 248.181 62.776 247.477 66.104L269.365 62.072C268.981 59.832 267.925 58.104 266.197 56.888C264.533 55.672 262.389 55.064 259.765 55.064Z" fill="#FF6262"/>
<path d="M228.351 49.208C228.351 55.3521 226.719 60.6641 223.455 65.1441C220.191 69.5601 215.615 72.7921 209.727 74.8401L221.151 95.0001H201.279L191.295 77.1441H181.695L178.143 95.0001H159.135L172.575 27.8H201.279C209.855 27.8 216.511 29.688 221.247 33.4641C225.983 37.2401 228.351 42.4881 228.351 49.208ZM209.151 51.0321C209.151 48.2801 208.223 46.232 206.367 44.8881C204.511 43.4801 201.919 42.7761 198.591 42.7761H188.607L184.575 62.4561H195.903C200.127 62.4561 203.391 61.4641 205.695 59.4801C207.999 57.4961 209.151 54.6801 209.151 51.0321Z" fill="#FF6262"/>
<path d="M113.36 95.76C108.88 95.76 104.56 95.28 100.4 94.32C96.3043 93.36 93.1043 92.144 90.8003 90.672L97.4243 77.904C99.7923 79.376 102.608 80.56 105.872 81.456C109.136 82.288 112.336 82.704 115.472 82.704C121.04 82.704 123.824 81.456 123.824 78.96C123.824 77.936 123.152 77.2 121.808 76.752C120.528 76.24 118.448 75.76 115.568 75.312C111.728 74.608 108.56 73.872 106.064 73.104C103.632 72.272 101.488 70.896 99.6323 68.976C97.7763 67.056 96.8483 64.368 96.8483 60.912C96.8483 54.896 99.4083 50.256 104.528 46.992C109.712 43.664 116.4 42 124.592 42C128.304 42 131.888 42.384 135.344 43.152C138.8 43.856 141.808 44.848 144.368 46.128L137.936 58.896C133.584 56.272 128.432 54.96 122.48 54.96C119.664 54.96 117.552 55.344 116.144 56.112C114.8 56.816 114.128 57.744 114.128 58.896C114.128 59.92 114.768 60.688 116.048 61.2C117.392 61.648 119.568 62.16 122.576 62.736C126.288 63.376 129.36 64.112 131.792 64.944C134.288 65.776 136.432 67.152 138.224 69.072C140.08 70.992 141.008 73.616 141.008 76.944C141.008 82.96 138.416 87.6 133.232 90.864C128.048 94.128 121.424 95.76 113.36 95.76Z" fill="#FF6262"/>
<path d="M67.584 42C72.512 42 76.896 42.896 80.736 44.688C84.64 46.416 87.68 49.04 89.856 52.56C92.032 56.08 93.12 60.336 93.12 65.328C93.12 65.968 93.056 67.056 92.928 68.592L54.336 75.696C55.04 77.808 56.32 79.376 58.176 80.4C60.096 81.36 62.656 81.84 65.856 81.84C68.096 81.84 70.272 81.488 72.384 80.784C74.56 80.016 76.512 78.96 78.24 77.616L85.824 89.04C79.744 93.52 72.352 95.76 63.648 95.76C58.144 95.76 53.28 94.8 49.056 92.88C44.896 90.896 41.664 88.144 39.36 84.624C37.12 81.04 36 76.848 36 72.048C36 66.352 37.312 61.232 39.936 56.688C42.624 52.08 46.336 48.496 51.072 45.936C55.872 43.312 61.376 42 67.584 42ZM66.624 54.96C63.296 54.96 60.576 55.984 58.464 58.032C56.416 60.016 55.04 62.672 54.336 66L76.224 61.968C75.84 59.728 74.784 58 73.056 56.784C71.392 55.568 69.248 54.96 66.624 54.96Z" fill="#FF6262"/>
<path d="M64.6681 132V107.7H77.7721C80.8201 107.7 82.8181 108.558 83.7661 110.274C84.7261 111.978 85.2061 114.084 85.2061 116.592C85.2061 119.112 84.7261 121.23 83.7661 122.946C82.8061 124.662 80.8081 125.52 77.7721 125.52H70.8061V132H64.6681ZM70.8061 121.362H75.9361C77.1001 121.362 77.9221 120.996 78.4021 120.264C78.8821 119.52 79.1221 118.302 79.1221 116.61C79.1221 114.918 78.8761 113.706 78.3841 112.974C77.9041 112.23 77.0881 111.858 75.9361 111.858H70.8061V121.362ZM85.4722 132L93.2122 107.664H101.87L109.628 132H103.328L101.69 126.078H93.4282L91.7722 132H85.4722ZM94.4362 122.046H100.7L97.5862 111.246H97.5322L94.4362 122.046ZM128.99 136.716L124.292 130.002L128.792 127.914L133.31 134.412L128.99 136.716ZM122.006 132.198C117.686 132.198 114.674 131.214 112.97 129.246C111.266 127.278 110.414 124.146 110.414 119.85C110.414 115.53 111.26 112.392 112.952 110.436C114.656 108.468 117.674 107.484 122.006 107.484C126.338 107.484 129.356 108.468 131.06 110.436C132.764 112.404 133.616 115.542 133.616 119.85C133.616 124.146 132.764 127.278 131.06 129.246C129.356 131.214 126.338 132.198 122.006 132.198ZM122.006 128.04C123.698 128.04 125.036 127.578 126.02 126.654C127.016 125.718 127.514 123.45 127.514 119.85C127.514 116.202 127.016 113.922 126.02 113.01C125.036 112.098 123.698 111.642 122.006 111.642C120.326 111.642 118.994 112.098 118.01 113.01C117.026 113.922 116.534 116.202 116.534 119.85C116.534 123.45 117.026 125.718 118.01 126.654C118.994 127.578 120.326 128.04 122.006 128.04ZM147.333 132.144C143.661 132.144 140.919 131.514 139.107 130.254C137.295 128.994 136.389 126.882 136.389 123.918V107.7H142.509V123.252C142.509 124.932 142.893 126.138 143.661 126.87C144.429 127.602 145.653 127.968 147.333 127.968C149.025 127.968 150.255 127.608 151.023 126.888C151.791 126.156 152.175 124.944 152.175 123.252V107.7H158.295V123.918C158.295 126.882 157.383 128.994 155.559 130.254C153.747 131.514 151.005 132.144 147.333 132.144ZM161.504 132V107.7H179.27V111.858H167.624V117.708H178.442V121.668H167.624V127.842H179.27V132H161.504ZM189.409 132V111.858H182.173V107.7H202.765V111.858H195.547V132H189.409ZM205.379 132V107.7H223.145V111.858H211.499V117.708H222.317V121.668H211.499V127.842H223.145V132H205.379ZM226.246 132V107.7H240.232C242.932 107.7 244.732 108.426 245.632 109.878C246.544 111.33 247 113.082 247 115.134C247 117.15 246.52 118.848 245.56 120.228C244.612 121.596 242.752 122.28 239.98 122.28H232.384V132H226.246ZM240.79 132L235.624 120.678L241.708 120.426L247.432 132H240.79ZM232.384 118.536H238.198C239.218 118.536 239.914 118.248 240.286 117.672C240.67 117.084 240.862 116.262 240.862 115.206C240.862 114.138 240.67 113.316 240.286 112.74C239.902 112.152 239.206 111.858 238.198 111.858H232.384V118.536ZM250.701 132V107.7H256.803V132H250.701ZM260.058 132L267.798 107.664H276.456L284.214 132H277.914L276.276 126.078H268.014L266.358 132H260.058ZM269.022 122.046H275.286L272.172 111.246H272.118L269.022 122.046ZM296.826 132V107.7H302.928V132H296.826ZM316.317 132V107.7H326.217L330.897 126.978H330.969L335.667 107.7H345.549V132H339.501V111.912H339.411L334.497 131.334H327.369L322.455 111.912H322.365V132H316.317ZM349.982 132V107.7H356.084V132H349.982ZM370.829 132.144C366.521 132.144 363.611 131.37 362.099 129.822C360.599 128.262 359.849 126.06 359.849 123.216H365.969C365.969 125.292 366.407 126.612 367.283 127.176C368.171 127.728 369.335 128.004 370.775 128.004C372.227 128.004 373.391 127.788 374.267 127.356C375.143 126.912 375.581 126.234 375.581 125.322C375.581 124.242 374.981 123.504 373.781 123.108C372.581 122.712 370.925 122.304 368.813 121.884C365.465 121.176 363.137 120.366 361.829 119.454C360.521 118.542 359.867 117.042 359.867 114.954C359.867 112.902 360.635 111.144 362.171 109.68C363.707 108.216 366.557 107.484 370.721 107.484C374.909 107.484 377.765 108.282 379.289 109.878C380.813 111.474 381.575 113.61 381.575 116.286H375.455C375.455 114.27 374.999 112.992 374.087 112.452C373.187 111.9 372.041 111.624 370.649 111.624C369.173 111.624 367.991 111.852 367.103 112.308C366.227 112.764 365.789 113.412 365.789 114.252C365.789 115.38 366.401 116.142 367.625 116.538C368.849 116.934 370.505 117.342 372.593 117.762C376.061 118.482 378.431 119.262 379.703 120.102C380.975 120.942 381.611 122.4 381.611 124.476C381.611 126.6 380.861 128.412 379.361 129.912C377.873 131.4 375.029 132.144 370.829 132.144ZM395.227 132.144C390.919 132.144 388.009 131.37 386.497 129.822C384.997 128.262 384.247 126.06 384.247 123.216H390.367C390.367 125.292 390.805 126.612 391.681 127.176C392.569 127.728 393.733 128.004 395.173 128.004C396.625 128.004 397.789 127.788 398.665 127.356C399.541 126.912 399.979 126.234 399.979 125.322C399.979 124.242 399.379 123.504 398.179 123.108C396.979 122.712 395.323 122.304 393.211 121.884C389.863 121.176 387.535 120.366 386.227 119.454C384.919 118.542 384.265 117.042 384.265 114.954C384.265 112.902 385.033 111.144 386.569 109.68C388.105 108.216 390.955 107.484 395.119 107.484C399.307 107.484 402.163 108.282 403.687 109.878C405.211 111.474 405.973 113.61 405.973 116.286H399.853C399.853 114.27 399.397 112.992 398.485 112.452C397.585 111.9 396.439 111.624 395.047 111.624C393.571 111.624 392.389 111.852 391.501 112.308C390.625 112.764 390.187 113.412 390.187 114.252C390.187 115.38 390.799 116.142 392.023 116.538C393.247 116.934 394.903 117.342 396.991 117.762C400.459 118.482 402.829 119.262 404.101 120.102C405.373 120.942 406.009 122.4 406.009 124.476C406.009 126.6 405.259 128.412 403.759 129.912C402.271 131.4 399.427 132.144 395.227 132.144ZM407.539 132L415.279 107.664H423.937L431.695 132H425.395L423.757 126.078H415.495L413.839 132H407.539ZM416.503 122.046H422.767L419.653 111.246H419.599L416.503 122.046ZM437.296 132V111.858H430.06V107.7H450.652V111.858H443.434V132H437.296ZM463.054 132.144C458.998 132.144 456.196 131.088 454.648 128.976C453.112 126.864 452.344 123.798 452.344 119.778C452.344 115.686 453.136 112.614 454.72 110.562C456.316 108.51 459.274 107.484 463.594 107.484C467.638 107.484 470.428 108.408 471.964 110.256C473.512 112.104 474.334 114.234 474.43 116.646H468.292C468.184 114.702 467.764 113.382 467.032 112.686C466.312 111.978 465.166 111.624 463.594 111.624C461.974 111.624 460.72 112.086 459.832 113.01C458.956 113.934 458.518 116.256 458.518 119.976C458.518 123.192 458.956 125.334 459.832 126.402C460.72 127.458 461.992 127.986 463.648 127.986C465.184 127.986 466.294 127.686 466.978 127.086C467.662 126.486 468.052 125.412 468.148 123.864L468.166 123.018H464.008V119.4H474.43V132H470.974L470.29 128.976C469.222 131.064 466.81 132.12 463.054 132.144ZM477.875 132V107.7H495.641V111.858H483.995V117.708H494.813V121.668H483.995V127.842H495.641V132H477.875ZM498.742 132V107.7H512.728C515.428 107.7 517.228 108.426 518.128 109.878C519.04 111.33 519.496 113.082 519.496 115.134C519.496 117.15 519.016 118.848 518.056 120.228C517.108 121.596 515.248 122.28 512.476 122.28H504.88V132H498.742ZM513.286 132L508.12 120.678L514.204 120.426L519.928 132H513.286ZM504.88 118.536H510.694C511.714 118.536 512.41 118.248 512.782 117.672C513.166 117.084 513.358 116.262 513.358 115.206C513.358 114.138 513.166 113.316 512.782 112.74C512.398 112.152 511.702 111.858 510.694 111.858H504.88V118.536ZM523.197 132V107.7H529.299V132H523.197ZM532.554 132L540.294 107.664H548.952L556.71 132H550.41L548.772 126.078H540.51L538.854 132H532.554ZM541.518 122.046H547.782L544.668 111.246H544.614L541.518 122.046Z" fill="#312F2F"/>
<path d="M588 22.9999L586.5 34.9999C524.5 36.4999 505 25.4999 483 43.9999L487 21.2506L540 -3.8147e-05L588 22.9999Z" fill="#FF6262"/>
<path d="M360.565 155.909L363.582 137.909H367.162L366.795 140.108H366.957C367.173 139.756 367.46 139.398 367.818 139.034C368.182 138.665 368.634 138.358 369.173 138.114C369.713 137.864 370.347 137.739 371.074 137.739C372.034 137.739 372.872 137.989 373.588 138.489C374.304 138.983 374.821 139.73 375.139 140.73C375.463 141.724 375.5 142.972 375.25 144.472C375.011 145.932 374.571 147.165 373.929 148.17C373.293 149.17 372.528 149.929 371.636 150.446C370.75 150.957 369.81 151.213 368.815 151.213C368.111 151.213 367.531 151.097 367.077 150.864C366.628 150.631 366.278 150.338 366.028 149.986C365.778 149.628 365.602 149.267 365.5 148.903H365.364L364.205 155.909H360.565ZM366.045 144.455C365.92 145.233 365.915 145.912 366.028 146.491C366.148 147.071 366.386 147.523 366.744 147.847C367.102 148.165 367.574 148.324 368.159 148.324C368.75 148.324 369.276 148.162 369.736 147.838C370.196 147.509 370.58 147.054 370.886 146.474C371.193 145.889 371.412 145.216 371.543 144.455C371.662 143.699 371.665 143.034 371.551 142.46C371.438 141.886 371.205 141.437 370.852 141.114C370.5 140.79 370.023 140.628 369.42 140.628C368.835 140.628 368.31 140.784 367.844 141.097C367.384 141.409 367 141.852 366.693 142.426C366.386 143 366.17 143.676 366.045 144.455ZM380.581 151.256C379.245 151.256 378.14 150.972 377.265 150.403C376.39 149.83 375.774 149.034 375.416 148.017C375.064 146.994 374.998 145.804 375.22 144.446C375.436 143.105 375.885 141.932 376.567 140.926C377.248 139.92 378.115 139.139 379.166 138.582C380.217 138.02 381.402 137.739 382.72 137.739C384.049 137.739 385.152 138.026 386.027 138.599C386.902 139.168 387.518 139.963 387.876 140.986C388.234 142.009 388.302 143.199 388.081 144.557C387.859 145.892 387.405 147.062 386.717 148.068C386.03 149.074 385.163 149.858 384.118 150.42C383.072 150.977 381.893 151.256 380.581 151.256ZM380.939 148.443C381.552 148.443 382.095 148.27 382.567 147.923C383.044 147.571 383.439 147.094 383.751 146.491C384.069 145.884 384.291 145.196 384.416 144.429C384.541 143.673 384.549 143.003 384.442 142.418C384.334 141.827 384.106 141.361 383.76 141.02C383.419 140.679 382.95 140.509 382.353 140.509C381.74 140.509 381.194 140.685 380.717 141.037C380.24 141.384 379.845 141.861 379.532 142.469C379.22 143.077 379.001 143.767 378.876 144.54C378.757 145.29 378.748 145.96 378.851 146.551C378.953 147.136 379.177 147.599 379.524 147.94C379.87 148.276 380.342 148.443 380.939 148.443ZM389.702 151L388.321 137.909H391.995L392.557 146.705H392.676L396.256 137.909H399.861L400.543 146.653H400.654L404.114 137.909H407.779L402.043 151H398.199L397.313 142.767H397.151L393.537 151H389.702ZM411.217 151.256C409.876 151.256 408.766 150.983 407.885 150.438C407.004 149.886 406.385 149.108 406.027 148.102C405.675 147.091 405.615 145.895 405.848 144.514C406.075 143.168 406.533 141.986 407.22 140.969C407.913 139.952 408.783 139.159 409.828 138.591C410.874 138.023 412.038 137.739 413.322 137.739C414.186 137.739 414.967 137.878 415.666 138.156C416.371 138.429 416.956 138.844 417.422 139.401C417.888 139.952 418.206 140.642 418.376 141.472C418.553 142.301 418.55 143.273 418.368 144.386L418.206 145.384H407.16L407.51 143.134H415.146C415.231 142.611 415.197 142.148 415.044 141.744C414.891 141.341 414.635 141.026 414.277 140.798C413.919 140.565 413.479 140.449 412.956 140.449C412.422 140.449 411.922 140.58 411.456 140.841C410.99 141.102 410.598 141.446 410.28 141.872C409.967 142.293 409.766 142.75 409.675 143.244L409.274 145.477C409.16 146.165 409.183 146.736 409.342 147.19C409.507 147.645 409.791 147.986 410.195 148.213C410.598 148.435 411.109 148.545 411.729 148.545C412.132 148.545 412.51 148.489 412.862 148.375C413.22 148.261 413.538 148.094 413.817 147.872C414.095 147.645 414.322 147.364 414.499 147.028L417.814 147.25C417.507 148.057 417.041 148.761 416.416 149.364C415.791 149.96 415.038 150.426 414.158 150.761C413.283 151.091 412.303 151.256 411.217 151.256ZM417.733 151L419.914 137.909H423.434L423.051 140.193H423.187C423.562 139.381 424.065 138.767 424.696 138.352C425.332 137.932 426.017 137.722 426.75 137.722C426.932 137.722 427.122 137.733 427.321 137.756C427.525 137.773 427.707 137.801 427.866 137.841L427.321 141.071C427.162 141.014 426.934 140.969 426.639 140.935C426.349 140.895 426.074 140.875 425.812 140.875C425.284 140.875 424.792 140.991 424.338 141.224C423.883 141.452 423.5 141.77 423.187 142.179C422.88 142.588 422.679 143.06 422.582 143.594L421.363 151H417.733ZM430.955 151.256C429.614 151.256 428.504 150.983 427.623 150.438C426.742 149.886 426.123 149.108 425.765 148.102C425.413 147.091 425.353 145.895 425.586 144.514C425.813 143.168 426.271 141.986 426.958 140.969C427.651 139.952 428.521 139.159 429.566 138.591C430.612 138.023 431.776 137.739 433.061 137.739C433.924 137.739 434.705 137.878 435.404 138.156C436.109 138.429 436.694 138.844 437.16 139.401C437.626 139.952 437.944 140.642 438.114 141.472C438.291 142.301 438.288 143.273 438.106 144.386L437.944 145.384H426.899L427.248 143.134H434.884C434.97 142.611 434.936 142.148 434.782 141.744C434.629 141.341 434.373 141.026 434.015 140.798C433.657 140.565 433.217 140.449 432.694 140.449C432.16 140.449 431.66 140.58 431.194 140.841C430.728 141.102 430.336 141.446 430.018 141.872C429.705 142.293 429.504 142.75 429.413 143.244L429.012 145.477C428.899 146.165 428.921 146.736 429.08 147.19C429.245 147.645 429.529 147.986 429.933 148.213C430.336 148.435 430.847 148.545 431.467 148.545C431.87 148.545 432.248 148.489 432.6 148.375C432.958 148.261 433.276 148.094 433.555 147.872C433.833 147.645 434.061 147.364 434.237 147.028L437.552 147.25C437.245 148.057 436.779 148.761 436.154 149.364C435.529 149.96 434.776 150.426 433.896 150.761C433.021 151.091 432.041 151.256 430.955 151.256ZM442.278 151.213C441.278 151.213 440.417 150.957 439.695 150.446C438.979 149.929 438.468 149.17 438.161 148.17C437.86 147.165 437.832 145.932 438.076 144.472C438.326 142.972 438.775 141.724 439.422 140.73C440.07 139.73 440.837 138.983 441.724 138.489C442.61 137.989 443.533 137.739 444.493 137.739C445.221 137.739 445.809 137.864 446.258 138.114C446.712 138.358 447.062 138.665 447.306 139.034C447.55 139.398 447.721 139.756 447.817 140.108H447.928L449.028 133.545H452.65L449.752 151H446.172L446.522 148.903H446.368C446.141 149.267 445.84 149.628 445.465 149.986C445.096 150.338 444.647 150.631 444.118 150.864C443.596 151.097 442.982 151.213 442.278 151.213ZM443.88 148.324C444.459 148.324 444.982 148.165 445.448 147.847C445.914 147.523 446.306 147.071 446.624 146.491C446.942 145.912 447.164 145.233 447.289 144.455C447.42 143.676 447.422 143 447.297 142.426C447.172 141.852 446.928 141.409 446.565 141.097C446.207 140.784 445.732 140.628 445.141 140.628C444.545 140.628 444.016 140.79 443.556 141.114C443.101 141.437 442.724 141.886 442.422 142.46C442.127 143.034 441.917 143.699 441.792 144.455C441.667 145.216 441.658 145.889 441.766 146.474C441.874 147.054 442.104 147.509 442.457 147.838C442.809 148.162 443.283 148.324 443.88 148.324ZM454.511 151L457.409 133.545H461.04L459.966 140.108H460.068C460.284 139.756 460.574 139.398 460.938 139.034C461.307 138.665 461.759 138.358 462.293 138.114C462.827 137.864 463.46 137.739 464.193 137.739C465.148 137.739 465.986 137.989 466.707 138.489C467.429 138.983 467.949 139.73 468.267 140.73C468.585 141.724 468.619 142.972 468.369 144.472C468.131 145.932 467.69 147.165 467.048 148.17C466.412 149.17 465.648 149.929 464.756 150.446C463.869 150.957 462.929 151.213 461.935 151.213C461.23 151.213 460.651 151.097 460.196 150.864C459.747 150.631 459.398 150.338 459.148 149.986C458.898 149.628 458.719 149.267 458.611 148.903H458.432L458.091 151H454.511ZM459.156 144.455C459.031 145.233 459.028 145.912 459.148 146.491C459.273 147.071 459.511 147.523 459.864 147.847C460.222 148.165 460.69 148.324 461.27 148.324C461.867 148.324 462.395 148.162 462.855 147.838C463.321 147.509 463.707 147.054 464.014 146.474C464.321 145.889 464.537 145.216 464.662 144.455C464.781 143.699 464.784 143.034 464.671 142.46C464.557 141.886 464.324 141.437 463.972 141.114C463.619 140.79 463.142 140.628 462.54 140.628C461.955 140.628 461.429 140.784 460.963 141.097C460.503 141.409 460.117 141.852 459.804 142.426C459.497 143 459.281 143.676 459.156 144.455ZM468.8 155.909C468.334 155.909 467.908 155.872 467.521 155.798C467.135 155.73 466.817 155.642 466.567 155.534L467.845 152.824C468.248 152.955 468.615 153.023 468.944 153.028C469.28 153.034 469.586 152.949 469.865 152.773C470.143 152.597 470.399 152.307 470.632 151.903L470.956 151.349L468.501 137.909H472.183L473.291 147.54H473.427L477.765 137.909H481.746L474.254 152.415C473.885 153.125 473.447 153.741 472.942 154.264C472.442 154.787 471.848 155.19 471.16 155.474C470.479 155.764 469.692 155.909 468.8 155.909ZM482.344 155.909L485.361 137.909H488.94L488.574 140.108H488.736C488.952 139.756 489.239 139.398 489.597 139.034C489.96 138.665 490.412 138.358 490.952 138.114C491.492 137.864 492.125 137.739 492.852 137.739C493.813 137.739 494.651 137.989 495.367 138.489C496.082 138.983 496.599 139.73 496.918 140.73C497.242 141.724 497.278 142.972 497.028 144.472C496.79 145.932 496.349 147.165 495.707 148.17C495.071 149.17 494.307 149.929 493.415 150.446C492.528 150.957 491.588 151.213 490.594 151.213C489.889 151.213 489.31 151.097 488.855 150.864C488.406 150.631 488.057 150.338 487.807 149.986C487.557 149.628 487.381 149.267 487.278 148.903H487.142L485.983 155.909H482.344ZM487.824 144.455C487.699 145.233 487.693 145.912 487.807 146.491C487.926 147.071 488.165 147.523 488.523 147.847C488.881 148.165 489.352 148.324 489.938 148.324C490.528 148.324 491.054 148.162 491.514 147.838C491.974 147.509 492.358 147.054 492.665 146.474C492.972 145.889 493.19 145.216 493.321 144.455C493.44 143.699 493.443 143.034 493.33 142.46C493.216 141.886 492.983 141.437 492.631 141.114C492.278 140.79 491.801 140.628 491.199 140.628C490.614 140.628 490.088 140.784 489.622 141.097C489.162 141.409 488.778 141.852 488.472 142.426C488.165 143 487.949 143.676 487.824 144.455ZM502.359 151.256C501.018 151.256 499.907 150.983 499.027 150.438C498.146 149.886 497.527 149.108 497.169 148.102C496.817 147.091 496.757 145.895 496.99 144.514C497.217 143.168 497.674 141.986 498.362 140.969C499.055 139.952 499.924 139.159 500.97 138.591C502.015 138.023 503.18 137.739 504.464 137.739C505.328 137.739 506.109 137.878 506.808 138.156C507.513 138.429 508.098 138.844 508.564 139.401C509.03 139.952 509.348 140.642 509.518 141.472C509.694 142.301 509.692 143.273 509.51 144.386L509.348 145.384H498.302L498.652 143.134H506.288C506.373 142.611 506.339 142.148 506.186 141.744C506.032 141.341 505.777 141.026 505.419 140.798C505.061 140.565 504.621 140.449 504.098 140.449C503.564 140.449 503.064 140.58 502.598 140.841C502.132 141.102 501.74 141.446 501.422 141.872C501.109 142.293 500.907 142.75 500.817 143.244L500.416 145.477C500.302 146.165 500.325 146.736 500.484 147.19C500.649 147.645 500.933 147.986 501.336 148.213C501.74 148.435 502.251 148.545 502.871 148.545C503.274 148.545 503.652 148.489 504.004 148.375C504.362 148.261 504.68 148.094 504.959 147.872C505.237 147.645 505.464 147.364 505.64 147.028L508.956 147.25C508.649 148.057 508.183 148.761 507.558 149.364C506.933 149.96 506.18 150.426 505.299 150.761C504.424 151.091 503.444 151.256 502.359 151.256ZM518.019 137.909L517.568 140.636H509.676L510.136 137.909H518.019ZM512.437 134.773H516.068L514.039 146.977C513.982 147.312 513.991 147.574 514.065 147.761C514.139 147.943 514.261 148.071 514.431 148.145C514.607 148.219 514.818 148.256 515.062 148.256C515.232 148.256 515.406 148.241 515.582 148.213C515.758 148.179 515.892 148.153 515.982 148.136L516.119 150.838C515.914 150.901 515.639 150.969 515.292 151.043C514.951 151.116 514.548 151.162 514.082 151.179C513.196 151.213 512.446 151.097 511.832 150.83C511.218 150.557 510.778 150.139 510.511 149.577C510.244 149.014 510.187 148.307 510.34 147.455L512.437 134.773ZM519.982 151.247C519.152 151.247 518.433 151.102 517.825 150.812C517.223 150.517 516.78 150.08 516.496 149.5C516.212 148.92 516.141 148.202 516.283 147.344C516.408 146.616 516.643 146.009 516.99 145.52C517.342 145.026 517.771 144.628 518.277 144.327C518.783 144.026 519.342 143.795 519.956 143.636C520.575 143.477 521.214 143.369 521.874 143.312C522.635 143.233 523.254 143.156 523.732 143.082C524.214 143.009 524.575 142.903 524.814 142.767C525.053 142.625 525.197 142.415 525.249 142.136V142.085C525.334 141.551 525.234 141.136 524.95 140.841C524.672 140.54 524.226 140.389 523.612 140.389C522.964 140.389 522.413 140.531 521.959 140.815C521.51 141.099 521.189 141.46 520.996 141.898L517.689 141.625C517.984 140.83 518.43 140.142 519.027 139.562C519.629 138.977 520.354 138.528 521.2 138.216C522.047 137.898 522.996 137.739 524.047 137.739C524.774 137.739 525.453 137.824 526.084 137.994C526.72 138.165 527.268 138.429 527.729 138.787C528.195 139.145 528.53 139.605 528.734 140.168C528.945 140.724 528.987 141.392 528.862 142.17L527.388 151H523.945L524.251 149.185H524.149C523.871 149.594 523.53 149.955 523.126 150.267C522.723 150.574 522.26 150.815 521.737 150.991C521.214 151.162 520.629 151.247 519.982 151.247ZM521.439 148.741C521.967 148.741 522.453 148.636 522.896 148.426C523.345 148.21 523.714 147.92 524.004 147.557C524.3 147.193 524.487 146.781 524.567 146.321L524.788 144.932C524.675 145.006 524.51 145.071 524.294 145.128C524.084 145.185 523.854 145.239 523.604 145.29C523.359 145.335 523.112 145.378 522.862 145.418C522.612 145.452 522.388 145.486 522.189 145.52C521.751 145.582 521.359 145.682 521.013 145.818C520.666 145.955 520.385 146.139 520.169 146.372C519.953 146.599 519.82 146.884 519.768 147.224C519.689 147.719 519.805 148.097 520.118 148.358C520.436 148.614 520.876 148.741 521.439 148.741ZM534.216 151.256C532.881 151.256 531.776 150.972 530.901 150.403C530.026 149.83 529.41 149.034 529.052 148.017C528.699 146.994 528.634 145.804 528.856 144.446C529.071 143.105 529.52 141.932 530.202 140.926C530.884 139.92 531.75 139.139 532.802 138.582C533.853 138.02 535.037 137.739 536.356 137.739C537.685 137.739 538.787 138.026 539.662 138.599C540.537 139.168 541.154 139.963 541.512 140.986C541.87 142.009 541.938 143.199 541.716 144.557C541.495 145.892 541.04 147.062 540.353 148.068C539.665 149.074 538.799 149.858 537.753 150.42C536.708 150.977 535.529 151.256 534.216 151.256ZM534.574 148.443C535.188 148.443 535.731 148.27 536.202 147.923C536.679 147.571 537.074 147.094 537.387 146.491C537.705 145.884 537.927 145.196 538.052 144.429C538.177 143.673 538.185 143.003 538.077 142.418C537.969 141.827 537.742 141.361 537.395 141.02C537.054 140.679 536.586 140.509 535.989 140.509C535.375 140.509 534.83 140.685 534.353 141.037C533.875 141.384 533.481 141.861 533.168 142.469C532.856 143.077 532.637 143.767 532.512 144.54C532.392 145.29 532.384 145.96 532.486 146.551C532.588 147.136 532.813 147.599 533.16 147.94C533.506 148.276 533.978 148.443 534.574 148.443ZM553.518 141.642L550.22 141.847C550.203 141.557 550.123 141.298 549.981 141.071C549.845 140.838 549.643 140.653 549.376 140.517C549.115 140.381 548.785 140.312 548.387 140.312C547.791 140.312 547.259 140.449 546.793 140.722C546.328 140.994 546.063 141.344 546.001 141.77C545.95 142.043 546.021 142.273 546.214 142.46C546.407 142.648 546.796 142.807 547.382 142.938L549.683 143.415C550.91 143.676 551.796 144.111 552.342 144.719C552.893 145.327 553.089 146.122 552.93 147.105C552.788 147.94 552.421 148.67 551.83 149.295C551.24 149.915 550.49 150.398 549.58 150.744C548.671 151.085 547.663 151.256 546.555 151.256C544.776 151.256 543.424 150.892 542.498 150.165C541.572 149.437 541.126 148.452 541.16 147.207L544.705 147.02C544.734 147.554 544.921 147.957 545.268 148.23C545.615 148.497 546.089 148.634 546.691 148.639C547.367 148.651 547.941 148.511 548.413 148.222C548.89 147.926 549.16 147.568 549.222 147.148C549.268 146.852 549.183 146.614 548.967 146.432C548.757 146.25 548.37 146.099 547.808 145.98L545.626 145.528C544.387 145.273 543.498 144.815 542.958 144.156C542.418 143.497 542.234 142.659 542.404 141.642C542.541 140.83 542.879 140.134 543.418 139.554C543.964 138.969 544.666 138.52 545.524 138.207C546.387 137.895 547.362 137.739 548.447 137.739C550.146 137.739 551.424 138.088 552.282 138.787C553.146 139.486 553.558 140.437 553.518 141.642Z" fill="url(#paint0_linear_1_24)"/>
<defs>
<linearGradient id="paint0_linear_1_24" x1="361" y1="138.5" x2="577" y2="138" gradientUnits="userSpaceOnUse">
<stop stop-color="#00BA9E"/>
<stop offset="1" stop-color="#005448"/>
</linearGradient>
</defs>
</svg>
