<svg width="105" height="83" viewBox="0 0 105 83" fill="none" xmlns="http://www.w3.org/2000/svg">
<path  d="M18.375 0C14.0273 0 10.5 3.48535 10.5 7.78125V15.5625H2.625C1.18125 15.5625 0 16.7297 0 18.1562C0 19.5828 1.18125 20.75 2.625 20.75H10.5H44.625C46.0688 20.75 47.25 21.9172 47.25 23.3438C47.25 24.7703 46.0688 25.9375 44.625 25.9375H10.5H7.875C6.43125 25.9375 5.25 27.1047 5.25 28.5312C5.25 29.9578 6.43125 31.125 7.875 31.125H10.5H39.375C40.8188 31.125 42 32.2922 42 33.7188C42 35.1453 40.8188 36.3125 39.375 36.3125H10.5H2.625C1.18125 36.3125 0 37.4797 0 38.9062C0 40.3328 1.18125 41.5 2.625 41.5H10.5H34.125C35.5688 41.5 36.75 42.6672 36.75 44.0938C36.75 45.5203 35.5688 46.6875 34.125 46.6875H10.5V67.4375C10.5 76.0293 17.5547 83 26.25 83C34.9453 83 42 76.0293 42 67.4375H63C63 76.0293 70.0547 83 78.75 83C87.4453 83 94.5 76.0293 94.5 67.4375H99.75C102.654 67.4375 105 65.1193 105 62.25C105 59.3807 102.654 57.0625 99.75 57.0625V46.6875V41.5V38.4686C99.75 35.7127 98.6508 33.0703 96.682 31.125L84 18.5939C82.0312 16.6486 79.357 15.5625 76.568 15.5625H68.25V7.78125C68.25 3.48535 64.7227 0 60.375 0H18.375ZM89.25 38.4686V41.5H68.25V25.9375H76.568L89.25 38.4686ZM26.25 59.6562C28.3386 59.6563 30.3416 60.4761 31.8185 61.9353C33.2953 63.3946 34.125 65.3738 34.125 67.4375C34.125 69.5012 33.2953 71.4804 31.8185 72.9397C30.3416 74.3989 28.3386 75.2187 26.25 75.2188C24.1614 75.2187 22.1584 74.3989 20.6815 72.9397C19.2047 71.4804 18.375 69.5012 18.375 67.4375C18.375 65.3738 19.2047 63.3946 20.6815 61.9353C22.1584 60.4761 24.1614 59.6563 26.25 59.6562ZM70.875 67.4375C70.875 65.3738 71.7047 63.3946 73.1815 61.9353C74.6584 60.4761 76.6614 59.6563 78.75 59.6562C80.8386 59.6563 82.8416 60.4761 84.3185 61.9353C85.7953 63.3946 86.625 65.3738 86.625 67.4375C86.625 69.5012 85.7953 71.4804 84.3185 72.9397C82.8416 74.3989 80.8386 75.2187 78.75 75.2188C76.6614 75.2187 74.6584 74.3989 73.1815 72.9397C71.7047 71.4804 70.875 69.5012 70.875 67.4375Z" fill="#312F2F"/>
</svg>
