<svg width="49" height="56" viewBox="0 0 49 56" fill="none" xmlns="http://www.w3.org/2000/svg">
<circle cx="24.5" cy="27.5" r="22.5" fill="#FF6262"/>
<path d="M41.6609 10.1203C37.0781 5.52656 30.975 3 24.4891 3C11.1016 3 0.207813 13.8938 0.207813 27.2812C0.207813 31.5578 1.32344 35.7359 3.44531 39.4219L0 52L12.8734 48.6203C16.4172 50.5562 20.4094 51.5734 24.4781 51.5734H24.4891C37.8656 51.5734 49 40.6797 49 27.2922C49 20.8063 46.2438 14.7141 41.6609 10.1203ZM24.4891 47.4828C20.8578 47.4828 17.3031 46.5094 14.2078 44.6719L13.475 44.2344L5.84063 46.2359L7.875 38.7875L7.39375 38.0219C5.37031 34.8063 4.30938 31.0984 4.30938 27.2812C4.30938 16.1578 13.3656 7.10156 24.5 7.10156C29.8922 7.10156 34.9563 9.20156 38.7625 13.0188C42.5688 16.8359 44.9094 21.9 44.8984 27.2922C44.8984 38.4266 35.6125 47.4828 24.4891 47.4828Z" fill="#FF6262"/>
<path d="M31.4125 30.3985C31.9703 30.5954 34.9562 32.061 35.5578 32.3672C36.1594 32.6625 36.5641 32.8157 36.7062 33.0891C36.8594 33.3407 36.8594 34.5547 36.3563 35.9766C35.8531 37.3985 33.4359 38.6891 32.2656 38.8641C30.3406 39.1485 28.8312 39.0063 24.9812 37.3438C18.8891 34.7079 14.9188 28.5829 14.6125 28.1782C14.3172 27.7735 12.1406 24.886 12.1406 21.9C12.1406 18.9141 13.7047 17.4485 14.2625 16.836C14.8203 16.2344 15.4766 16.0813 15.8812 16.0813C16.2859 16.0813 16.6906 16.0813 17.0406 16.1032C17.4125 16.125 17.9156 15.961 18.4078 17.1422C18.9109 18.3563 20.125 21.3422 20.2781 21.6485C20.4312 21.9547 20.5297 22.3047 20.3328 22.7094C19.1734 25.0282 17.9266 24.9516 18.55 26.0235C20.9016 30.0594 23.2422 31.4594 26.8078 33.2422C27.4094 33.5485 27.7703 33.4938 28.1203 33.0891C28.4813 32.6735 29.6406 31.3172 30.0453 30.7047C30.45 30.0922 30.8547 30.1907 31.4125 30.3985Z" fill="white"/>
<rect x="5" y="39" width="9" height="8" fill="#FF6262"/>
</svg>
